ffmpeg version 3.4.8-0ubuntu0.2 Copyright (c) 2000-2020 the FFmpeg developers
  built with gcc 7 (Ubuntu 7.5.0-3ubuntu1~18.04)
  configuration: --prefix=/usr --extra-version=0ubuntu0.2 --toolchain=hardened --libdir=/usr/lib/x86_64-linux-gnu --incdir=/usr/include/x86_64-linux-gnu --enable-gpl --disable-stripping --enable-avresample --enable-avisynth --enable-gnutls --enable-ladspa --enable-libass --enable-libbluray --enable-libbs2b --enable-libcaca --enable-libcdio --enable-libflite --enable-libfontconfig --enable-libfreetype --enable-libfribidi --enable-libgme --enable-libgsm --enable-libmp3lame --enable-libmysofa --enable-libopenjpeg --enable-libopenmpt --enable-libopus --enable-libpulse --enable-librubberband --enable-librsvg --enable-libshine --enable-libsnappy --enable-libsoxr --enable-libspeex --enable-libssh --enable-libtheora --enable-libtwolame --enable-libvorbis --enable-libvpx --enable-libwavpack --enable-libwebp --enable-libx265 --enable-libxml2 --enable-libxvid --enable-libzmq --enable-libzvbi --enable-omx --enable-openal --enable-opengl --enable-sdl2 --enable-libdc1394 --enable-libdrm --enable-libiec61883 --enable-chromaprint --enable-frei0r --enable-libopencv --enable-libx264 --enable-shared
  libavutil      55. 78.100 / 55. 78.100
  libavcodec     57.107.100 / 57.107.100
  libavformat    57. 83.100 / 57. 83.100
  libavdevice    57. 10.100 / 57. 10.100
  libavfilter     6.107.100 /  6.107.100
  libavresample   3.  7.  0 /  3.  7.  0
  libswscale      4.  8.100 /  4.  8.100
  libswresample   2.  9.100 /  2.  9.100
  libpostproc    54.  7.100 / 54.  7.100
[rawvideo @ 0x55d75585ca20] Estimating duration from bitrate, this may be inaccurate
Input #0, rawvideo, from '../../SVC-Encoder-20220109T061506Z-001/SVC-Encoder/Dataset/RollerCoaster/6f_2x2/tile_yuv/f3_t1_480x480.yuv':
  Duration: 00:00:10.00, start: 0.000000, bitrate: 82944 kb/s
    Stream #0:0: Video: rawvideo (I420 / 0x30323449), yuv420p, 480x480, 82944 kb/s, 30 tbr, 30 tbn, 30 tbc
Stream mapping:
  Stream #0:0 -> #0:0 (rawvideo (native) -> h264 (libx264))
Press [q] to stop, [?] for help
[libx264 @ 0x55d755869c60] using cpu capabilities: MMX2 SSE2Fast LZCNT SSSE3 SSE4.2 AVX
[libx264 @ 0x55d755869c60] profile High, level 3.0
Output #0, rawvideo, to 'RollerCoaster_f3_t1_480x480_x264_QP_24.h264':
  Metadata:
    encoder         : Lavf57.83.100
    Stream #0:0: Video: h264 (libx264), yuv420p, 480x480, q=-1--1, 30 fps, 30 tbn, 30 tbc
    Metadata:
      encoder         : Lavc57.107.100 libx264
    Side data:
      cpb: bitrate max/min/avg: 0/0/0 buffer size: 0 vbv_delay: -1
frame=  124 fps=0.0 q=30.0 PSNR=Y:nan U:nan V:nan *:nan size=     111kB time=00:00:02.70 bitrate= 336.8kbits/s speed=5.28x    frame=  211 fps=207 q=30.0 PSNR=Y:nan U:nan V:nan *:nan size=     220kB time=00:00:05.60 bitrate= 321.5kbits/s speed= 5.5x    frame=  300 fps=177 q=30.0 LPSNR=Y:inf U:inf V:inf *:inf size=     379kB time=00:00:09.93 bitrate= 312.8kbits/s speed=5.86x    
video:379kB audio:0kB subtitle:0kB other streams:0kB global headers:0kB muxing overhead: 0.000000%
[libx264 @ 0x55d755869c60] frame I:2     Avg QP:22.84  size: 16946  PSNR Mean Y:45.89 U:47.75 V:46.99 Avg:46.33 Global:46.25
[libx264 @ 0x55d755869c60] frame P:76    Avg QP:23.66  size:  3017  PSNR Mean Y:44.34 U:47.56 V:46.56 Avg:45.06 Global:45.04
[libx264 @ 0x55d755869c60] frame B:222   Avg QP:29.48  size:   564  PSNR Mean Y:43.37 U:47.34 V:46.38 Avg:44.25 Global:44.24
[libx264 @ 0x55d755869c60] consecutive B-frames:  1.0%  0.7%  1.0% 97.3%
[libx264 @ 0x55d755869c60] mb I  I16..4: 41.2% 34.7% 24.1%
[libx264 @ 0x55d755869c60] mb P  I16..4:  1.9%  1.0%  0.2%  P16..4: 31.7% 15.2%  5.1%  0.0%  0.0%    skip:44.8%
[libx264 @ 0x55d755869c60] mb B  I16..4:  0.0%  0.2%  0.1%  B16..8: 26.9%  3.1%  0.3%  direct: 0.2%  skip:69.2%  L0:41.8% L1:54.3% BI: 3.8%
[libx264 @ 0x55d755869c60] 8x8 transform intra:36.6% inter:63.6%
[libx264 @ 0x55d755869c60] coded y,uvDC,uvAC intra: 39.6% 57.5% 28.1% inter: 6.0% 5.2% 0.2%
[libx264 @ 0x55d755869c60] i16 v,h,dc,p: 54% 25% 13%  8%
[libx264 @ 0x55d755869c60] i8 v,h,dc,ddl,ddr,vr,hd,vl,hu: 28% 14% 25%  6%  4%  7%  6%  4%  7%
[libx264 @ 0x55d755869c60] i4 v,h,dc,ddl,ddr,vr,hd,vl,hu: 19% 32% 15%  5%  6%  5% 11%  3%  6%
[libx264 @ 0x55d755869c60] i8c dc,h,v,p: 43% 23% 24% 10%
[libx264 @ 0x55d755869c60] Weighted P-Frames: Y:0.0% UV:0.0%
[libx264 @ 0x55d755869c60] ref P L0: 56.7% 12.7% 22.0%  8.5%
[libx264 @ 0x55d755869c60] ref B L0: 71.9% 22.0%  6.1%
[libx264 @ 0x55d755869c60] ref B L1: 82.3% 17.7%
[libx264 @ 0x55d755869c60] PSNR Mean Y:43.636 U:47.399 V:46.426 Avg:44.469 Global:44.436 kb/s:310.76
